<svg width="62" height="62" viewBox="0 0 62 62" fill="none" xmlns="http://www.w3.org/2000/svg">
<g clip-path="url(#clip0_199_1443)">
<path d="M9.56641 4.71069C8.46445 5.06186 7.84687 5.44936 7.01133 6.2849C3.93555 9.36068 3.80234 15.8271 6.66016 23.6861L7.07187 24.788L6.57539 25.9263C5.99414 27.2583 5.425 28.8568 5.20703 29.7771C5.06172 30.3826 5.0375 30.4189 4.73477 30.3583C3.03945 30.0193 1.08984 29.765 0.811328 29.8255C0.435937 29.9224 0 30.54 0 30.9759C0 31.4119 0.314844 31.9205 0.690234 32.0658C0.871875 32.1384 1.81641 32.3443 2.78516 32.5138C3.7418 32.6954 4.54102 32.8408 4.55312 32.8529C4.56523 32.865 4.52891 33.1798 4.46836 33.5431C4.41992 33.9064 4.37148 34.5966 4.37148 35.081C4.35938 36.413 4.48047 36.3283 2.48242 36.3283C0.787109 36.3283 0.738672 36.3404 0.375391 36.6431C0.0484375 36.9095 0 37.0306 0 37.5392C0 38.0478 0.0484375 38.1689 0.375391 38.4353C0.738672 38.738 0.787109 38.7501 2.55508 38.7501C3.91133 38.7501 4.35938 38.7865 4.35938 38.8955C4.37148 39.4767 4.7832 41.7896 5.0375 42.7462C7.13242 50.4357 13.4051 55.2915 23.3953 56.9626C26.132 57.4228 28.3117 57.556 32.0535 57.4833C35.6016 57.4228 37.309 57.2533 39.9609 56.7204C49.6727 54.7708 55.7516 49.3822 57.2652 41.39C57.3863 40.6997 57.5316 39.8279 57.5801 39.4404L57.6527 38.7501H59.457C61.2129 38.7501 61.2613 38.738 61.6246 38.4353C61.9516 38.1689 62 38.0478 62 37.5392C62 37.0306 61.9516 36.9095 61.6246 36.6431C61.2613 36.3404 61.2129 36.3283 59.5176 36.3283C57.5316 36.3283 57.6527 36.413 57.6285 34.9962C57.6285 34.5603 57.5801 33.9064 57.5316 33.5431C57.4711 33.1798 57.4348 32.865 57.4469 32.8529C57.459 32.8408 58.2824 32.6833 59.2754 32.5017C60.2805 32.3322 61.2371 32.1142 61.4066 32.0173C62.0848 31.6783 62.1695 30.5158 61.552 30.0314C61.1523 29.7165 60.8375 29.7287 58.7426 30.104C57.7859 30.2736 56.9988 30.3947 56.9746 30.3704C56.9625 30.3462 56.8051 29.8134 56.6234 29.1837C56.4418 28.554 56.0543 27.4279 55.7516 26.7013C55.4488 25.9626 55.134 25.224 55.0613 25.0544C54.9523 24.788 55.0129 24.5216 55.4246 23.4197C57.7012 17.3287 58.0039 11.4798 56.248 7.98022C55.4367 6.39389 53.9957 5.17084 52.3246 4.67436C51.3922 4.39584 49.4789 4.42006 48.2559 4.71069C45.6645 5.34037 42.7219 7.15678 39.7793 9.96615L38.5562 11.1165L37.3574 10.8259C35.1172 10.281 33.652 10.1236 31 10.1236C28.348 10.1236 26.8828 10.281 24.6547 10.8259L23.4437 11.1165L22.1723 9.90561C19.2418 7.13256 16.3355 5.34037 13.7441 4.71069C12.4727 4.40795 10.4988 4.40795 9.56641 4.71069ZM13.066 7.09623C14.9309 7.53217 17.8613 9.31225 20.0773 11.3466L20.8402 12.049L19.932 12.4486L19.0238 12.8603L18.2125 12.1701C16.6504 10.838 15.173 10.0146 13.0781 9.30014C11.6855 8.82787 10.8258 8.75521 10.3535 9.05795C8.80352 10.0388 8.50078 14.3861 9.67539 18.8302C9.99023 20.0169 10.0145 20.1865 9.85703 20.4044C9.76016 20.5376 9.48164 20.9372 9.23945 21.2763C8.99727 21.6275 8.76719 21.9181 8.71875 21.9181C8.59766 21.9181 7.89531 19.5447 7.56836 18.0189C6.32109 12.0974 7.39883 7.93178 10.4141 7.01147C10.9348 6.85405 12.2426 6.89037 13.066 7.09623ZM52.2641 7.30209C54.7586 8.57357 55.5699 12.606 54.4316 18.0189C54.0926 19.6415 53.4023 21.9423 53.2691 21.8939C53.0633 21.8091 51.9492 20.1501 52.0098 19.9927C52.2035 19.5083 52.7121 17.2681 52.8574 16.2509C53.0875 14.7615 53.0875 12.4122 52.8574 11.3466C52.6516 10.3415 52.1309 9.36068 51.6465 9.05795C51.15 8.74311 50.2781 8.83998 48.6797 9.3849C46.6816 10.0872 45.1801 10.9349 43.7391 12.1943L42.9762 12.8603L42.068 12.4607L41.1477 12.049L41.9227 11.3466C44.066 9.3728 46.8512 7.65326 48.7402 7.13256C49.9633 6.80561 51.4285 6.86615 52.2641 7.30209ZM13.175 11.9763C14.4344 12.5091 15.3789 13.054 16.1781 13.708L16.7109 14.1439L15.7301 14.8341C14.6402 15.597 13.4293 16.59 12.5695 17.4134L12.0125 17.9583L11.8793 17.4861C11.4797 15.9603 11.2859 12.7392 11.5402 11.831C11.6613 11.4072 11.8187 11.4193 13.175 11.9763ZM50.4598 11.831C50.7141 12.7392 50.5203 15.9603 50.1207 17.4861L49.9875 17.9583L49.4305 17.4134C48.5707 16.59 47.3598 15.597 46.2699 14.8341L45.3012 14.156L45.6887 13.8169C46.5848 13.0419 47.6625 12.4244 49.1035 11.8552C50.1812 11.4193 50.3508 11.4193 50.4598 11.831ZM32.768 12.5939C42.5887 13.3931 50.8957 19.8595 53.9957 29.1595C54.2742 29.9708 54.4922 30.6853 54.4922 30.7458C54.4922 30.8064 53.9594 30.9396 53.3176 31.0607C51.5617 31.3634 51.259 31.4603 50.9926 31.8115C50.6898 32.1747 50.6535 32.8892 50.9199 33.2525C51.2832 33.7853 51.6949 33.8337 53.3539 33.5431C54.1895 33.3978 54.9039 33.313 54.9523 33.3494C55.0613 33.4583 55.1945 34.6693 55.2066 35.5654L55.2188 36.3283H53.4023C52.3125 36.3283 51.477 36.3767 51.2953 36.4615C51.1258 36.5462 50.8957 36.8005 50.7867 37.0306C50.6172 37.3818 50.6172 37.5271 50.7262 37.9146C50.9441 38.6533 51.259 38.7501 53.3781 38.7501H55.1703L55.0734 39.5615C54.6738 42.9037 53.4508 45.6888 51.259 48.256L50.4355 49.2126L50.3629 45.5314C50.3023 42.6857 50.2418 41.6201 50.0844 40.8693C49.273 37.2001 46.6332 33.9669 43.2668 32.5744C41.4383 31.8115 40.7723 31.7025 37.6238 31.6419L34.7418 31.5814L34.5723 31.1697C34.3301 30.5763 33.4582 29.6923 32.7559 29.329C32.223 29.0384 32.0051 29.0021 31 29.0021C29.9949 29.0021 29.777 29.0384 29.2441 29.329C28.5418 29.6923 27.6699 30.5763 27.4277 31.1697L27.2582 31.5814L24.3762 31.6419C21.2277 31.7025 20.5617 31.8115 18.7332 32.5744C15.3668 33.979 12.727 37.188 11.9156 40.8693C11.7582 41.6201 11.6977 42.6857 11.6371 45.5193L11.5645 49.2005L10.8863 48.4255C8.58555 45.7736 7.32617 42.9763 6.92656 39.5615L6.82969 38.7501H8.62187C10.6926 38.7501 11.0316 38.6533 11.2617 37.9751C11.4312 37.4302 11.3102 37.0064 10.8742 36.631C10.523 36.3404 10.4625 36.3283 8.64609 36.3283H6.78125L6.79336 35.5654C6.80547 34.6693 6.93867 33.4583 7.04766 33.3494C7.09609 33.313 7.81055 33.3978 8.64609 33.5431C9.92969 33.7732 10.2324 33.7853 10.5352 33.6642C11.3344 33.3372 11.5281 32.3443 10.9227 31.7388C10.5836 31.3997 10.4504 31.3634 7.89531 30.9154C7.51992 30.8548 7.4957 30.8306 7.58047 30.4673C7.72578 29.7892 8.47656 27.7427 8.94883 26.7013C10.4625 23.4439 12.9812 20.1986 15.7422 17.9583C19.4719 14.9431 24.2914 12.9935 28.9656 12.606C30.7699 12.4607 31.0484 12.4607 32.768 12.5939ZM32.0535 31.8962C32.9133 32.8287 32.2715 34.2697 31 34.2697C29.7891 34.2697 29.0988 32.8771 29.8738 31.9689C30.2855 31.4724 30.5762 31.3513 31.1816 31.424C31.5449 31.4603 31.7629 31.5814 32.0535 31.8962ZM27.5367 34.6935C28.2148 36.0134 29.4742 36.7521 31.0242 36.74C31.8234 36.74 32.0656 36.6794 32.7559 36.3404C33.5914 35.9287 34.3059 35.19 34.6328 34.3908L34.7902 34.0033L37.4059 34.0638C40.4332 34.1365 41.0629 34.2576 42.6855 35.0568C44.9258 36.1708 46.5242 37.9872 47.3961 40.4091L47.7715 41.4747L47.8078 46.3306L47.8441 51.1865L46.4152 51.913C43.509 53.4146 40.5664 54.2744 36.4613 54.8193C34.4996 55.0857 27.9605 55.122 26.0352 54.8798C21.6273 54.3228 18.5879 53.463 15.5848 51.913L14.1559 51.1865L14.1922 46.3306L14.2285 41.4747L14.6039 40.4091C15.8512 36.9458 18.8422 34.524 22.4023 34.1122C22.6324 34.088 23.807 34.0517 25.0059 34.0517L27.1855 34.0275L27.5367 34.6935Z" fill="white"/>
<path d="M16.5293 23.4195C16.1297 23.8191 16.0449 24.2551 16.2023 25.1148C16.5051 26.7496 17.498 28.0574 18.9875 28.784C19.6172 29.0988 19.7867 29.123 21.0703 29.123C22.366 29.123 22.5113 29.0988 23.1895 28.7719C24.6184 28.0695 25.6598 26.6648 25.902 25.1027C26.1078 23.7707 25.7445 23.1289 24.7637 23.1289C23.916 23.1289 23.6496 23.4801 23.4316 24.8363C23.2742 25.8414 22.1602 26.7617 21.0945 26.7617C19.7504 26.7617 18.7695 25.8293 18.5758 24.3641C18.4668 23.5164 18.0793 23.1289 17.3527 23.1289C16.9531 23.1289 16.7473 23.2016 16.5293 23.4195Z" fill="white"/>
<path d="M36.4856 23.3105C36.1102 23.577 35.977 24.1582 36.0981 25.0422C36.3161 26.6164 37.3696 28.0574 38.8106 28.7719C39.4887 29.0988 39.634 29.123 40.9297 29.123C42.2133 29.123 42.3829 29.0988 43.0126 28.784C44.4899 28.0574 45.495 26.7496 45.7856 25.1754C45.9551 24.243 45.8825 23.8313 45.4708 23.4195C45.2528 23.2016 45.0469 23.1289 44.6473 23.1289C43.9208 23.1289 43.5333 23.5164 43.4243 24.3641C43.2305 25.8293 42.2497 26.7617 40.9055 26.7617C39.8399 26.7617 38.7258 25.8414 38.5684 24.8363C38.4352 23.9645 38.2536 23.4922 37.9872 23.3105C37.6481 23.0805 36.8247 23.0805 36.4856 23.3105Z" fill="white"/>
<path d="M29.4861 39.3434C28.7111 39.6824 28.481 40.8328 29.0864 41.3535C29.256 41.4988 29.6071 41.6684 29.8736 41.7168C30.4911 41.8258 30.7575 42.0922 30.7575 42.5766C30.7575 43.0488 30.37 43.4727 29.9583 43.4727C29.5224 43.4727 29.1228 43.7027 28.9048 44.0781C28.6505 44.502 28.6505 44.8289 28.8806 45.2891C29.0986 45.7008 29.4013 45.8945 29.8372 45.8945C30.2732 45.8945 30.7939 46.3789 30.7939 46.8027C30.7939 47.2266 30.2732 47.7109 29.8372 47.7109C29.1349 47.7109 28.6142 48.3891 28.7474 49.1156C28.8564 49.6363 29.4376 50.1328 29.9583 50.1328C31.3509 50.1328 32.7435 49.0914 33.131 47.7594C33.3732 46.8996 33.3005 46.052 32.8888 45.277L32.5982 44.7078L32.9251 44.066C33.1794 43.5332 33.24 43.2547 33.2278 42.5645C33.2036 41.2203 32.6103 40.2273 31.4841 39.6582C30.8544 39.3312 29.8614 39.1859 29.4861 39.3434Z" fill="white"/>
<path d="M36.6914 39.9492C36.0859 40.1309 35.4078 40.5547 34.9719 41.0148C34.2938 41.7172 34.0273 42.3953 34.0273 43.4852C34.0273 44.793 34.4512 45.6043 35.6379 46.5852C37.0547 47.7598 38.5078 48.8012 39.2586 49.1766C40.6996 49.9031 41.5957 49.5641 44.6352 47.1543C46.0883 46.0039 46.4516 45.6043 46.7422 44.8293C47.4324 42.9887 46.609 40.9906 44.8168 40.1551C43.957 39.7676 42.407 39.7918 41.5957 40.2277C41.2688 40.3973 40.8934 40.6516 40.7602 40.7848L40.5422 41.0391L40.0941 40.6758C39.2102 39.9734 37.6965 39.6465 36.6914 39.9492ZM38.2414 42.4316C38.423 42.5285 38.7863 42.8313 39.0527 43.1098C40.2031 44.3086 40.6996 44.2723 42.2133 42.8434C42.8551 42.2379 43.3758 42.141 43.957 42.5285C44.502 42.9039 44.6957 43.5457 44.393 44.018C44.1629 44.357 42.6734 45.568 41.3414 46.5004L40.4695 47.1059L39.2828 46.2461C36.9336 44.5508 36.4613 44.0906 36.4492 43.5578C36.4492 43.0856 36.643 42.7707 37.091 42.5043C37.5512 42.2137 37.8055 42.2016 38.2414 42.4316Z" fill="white"/>
</g>
<defs>
<clipPath id="clip0_199_1443">
<rect width="62" height="62" fill="white"/>
</clipPath>
</defs>
</svg>
