<svg width="62" height="62" viewBox="0 0 62 62" fill="none" xmlns="http://www.w3.org/2000/svg">
<path d="M11.9035 1.95022C11.0559 2.10764 10.3293 2.49514 9.63906 3.14905C8.80352 3.93616 8.35547 4.8928 8.2707 6.10373L8.19805 6.98772L7.27773 7.06037C6.74492 7.0967 6.11523 7.22991 5.77617 7.37522C4.98906 7.71428 3.99609 8.69514 3.56016 9.53069C3.2332 10.1846 3.20898 10.3299 3.20898 11.5651C3.20898 12.8365 3.2332 12.9455 3.6207 13.7326C4.11719 14.7498 5.14648 15.8033 6.07891 16.2514C7.42305 16.9053 8.08906 16.9901 11.4434 16.9053C16.5656 16.7721 17.1469 16.651 17.6797 15.5612C17.9703 14.9557 18.2004 12.0615 18.2125 8.901C18.2246 6.8303 18.2004 6.67287 17.8977 5.78889C17.4859 4.62639 17.2316 4.21467 16.4445 3.41545C15.6937 2.66467 14.6281 2.10764 13.623 1.93811C12.7996 1.80491 12.618 1.80491 11.9035 1.95022ZM14.059 4.57795C15.4516 5.30451 15.9117 6.41858 15.8875 9.02209C15.8633 10.4994 15.6574 14.3018 15.5848 14.3623C15.5121 14.4229 10.9953 14.653 9.91758 14.653C8.30703 14.653 7.31406 14.3744 6.55117 13.7205C5.93359 13.1998 5.44922 12.2553 5.44922 11.5772C5.44922 10.5479 6.26055 9.56701 7.26562 9.38537C7.50781 9.33694 8.30703 9.39748 9.05781 9.49436C9.80859 9.60334 10.5473 9.68811 10.6926 9.68811H10.9711L10.8016 8.2592C10.5957 6.43069 10.6441 5.59514 11.0074 5.13498C11.7461 4.19045 12.9086 3.97248 14.059 4.57795Z" fill="white"/>
<path d="M41.7168 3.14863C40.627 3.43925 40.0699 3.66933 39.2465 4.21425L38.5684 4.63808L36.9336 4.61386C35.0566 4.58964 33.7488 4.7955 32.332 5.34042C29.3168 6.50292 26.6648 9.21542 25.6719 12.1701C25.4902 12.715 25.3813 12.8361 24.4488 13.4658C22.475 14.7857 21.2035 16.6506 20.7191 18.8908C20.5254 19.8232 20.4891 19.8959 20.3559 19.6416C20.0895 19.1572 18.7938 18.2975 17.8977 18.031C16.6625 17.6557 15.2457 17.7404 14.1438 18.249C12.7875 18.8908 11.7703 20.017 11.3344 21.3975C11.1527 21.9424 11.0801 22.0393 10.741 22.0998C10.0629 22.2451 8.96094 22.9111 8.33125 23.5408C7.15664 24.7396 6.59961 26.4955 6.89023 28.0697C7.20508 29.7893 8.34336 31.2666 9.90547 32.0053C10.6563 32.3685 10.8016 32.3928 11.9883 32.3928C12.848 32.3928 13.4172 32.3201 13.7684 32.1869C14.1801 32.0416 14.3133 32.0295 14.4102 32.1506C14.507 32.2717 14.3617 32.5865 13.8531 33.3736C12.4 35.6381 11.1043 38.4111 10.3535 40.8693C9.21523 44.6596 9.21523 48.5225 10.3656 51.7193C10.5352 52.1916 10.632 52.6275 10.5715 52.676C10.4262 52.8092 9.39688 53.124 8.35547 53.3541C7.72578 53.4994 6.68438 53.5721 4.9043 53.6084C3.24531 53.6326 2.26445 53.6932 2.08281 53.79C1.6832 53.9959 1.45312 54.5045 1.45312 55.1705C1.45312 55.7275 1.47734 55.7639 2.4582 56.7205C3.94766 58.1615 5.60664 59.0697 7.84688 59.6631C8.83984 59.9295 9.3 59.9779 10.8379 59.99C12.7996 60.0021 13.4414 59.9053 15.2215 59.324L16.3234 58.9607L17.0379 59.324C17.4254 59.5178 18.1398 59.7963 18.6121 59.9416C19.4355 60.1959 19.6293 60.1959 24.7152 60.1596C29.898 60.1232 29.9828 60.1111 30.673 59.8326C31.666 59.4451 32.7922 58.3553 33.2523 57.3744C33.5672 56.6842 33.6035 56.4904 33.6035 55.34C33.5914 54.1896 33.5672 53.9959 33.2402 53.342C32.7922 52.4096 31.8598 51.4892 30.9395 51.0412C30.2977 50.7385 30.0313 50.69 28.7355 50.6295L27.2582 50.5568L25.0906 48.4014C23.0199 46.3428 22.9109 46.258 22.4508 46.258C22.1844 46.258 21.8574 46.3428 21.7242 46.4396C21.373 46.6818 21.143 47.2752 21.252 47.6748C21.3488 48.0986 25.2723 52.0826 26.023 52.5307C26.5074 52.8092 26.7375 52.8576 28.0816 52.9182C29.1352 52.9666 29.7164 53.0514 29.9707 53.1846C30.7578 53.6084 31.3633 54.5529 31.3633 55.3642C31.3633 56.0303 30.8426 56.9748 30.2613 57.3623L29.7406 57.7014L24.5699 57.7377L19.3871 57.774L18.6363 57.4592C13.5141 55.3885 10.8863 49.5881 12.1699 43.2307C12.6422 40.9178 14.0227 37.6119 15.5605 35.1295L16.2629 34.0033L25.6719 43.4123L35.0809 52.8213L34.8992 53.3178C34.6328 54.0322 34.657 55.8244 34.9355 56.6115C35.4441 58.0404 36.643 59.2635 38.1203 59.8326C39.0891 60.208 40.7117 60.208 41.6684 59.8326C43.1941 59.2392 44.3082 58.1494 44.841 56.6721C45.0469 56.1392 45.2164 55.8728 45.3617 55.8486C45.4949 55.8244 45.9066 55.667 46.2941 55.4975C46.6695 55.3279 47.0086 55.2068 47.0328 55.231C47.0449 55.2553 47.6383 56.0424 48.3406 56.9869C49.7453 58.8639 50.1328 59.2392 51.0652 59.6631C53.4992 60.7771 56.3207 59.8084 57.4832 57.435C57.798 56.781 57.8223 56.6236 57.8223 55.34V53.9475L56.9262 52.01C55.8727 49.7092 55.6305 49.031 55.5215 48.1713C55.4852 47.8201 55.582 45.4103 55.7516 42.831L56.0543 38.1326L57.1199 37.0064C58.8273 35.2021 59.893 33.1557 60.3652 30.7701C60.6559 29.3533 60.5711 26.4955 60.1836 25.1271C59.6508 23.1775 58.6336 21.3732 57.2531 19.908L56.4297 19.0482L56.793 18.3217C57.4348 17.0381 57.677 15.7787 57.6043 14.1682C57.5316 12.6424 57.2773 11.6857 56.6477 10.5353C55.6668 8.77949 54.8918 8.12558 51.2227 5.89746C47.6625 3.72988 46.8875 3.34238 45.7008 3.08808C44.5383 2.84589 42.7582 2.87011 41.7168 3.14863ZM45.7855 5.54628C46.4516 5.78847 51.816 8.94902 52.9543 9.78456C54.4922 10.8986 55.4488 13.042 55.2914 14.9795C55.2188 15.8393 54.807 17.1955 54.6133 17.1955C54.5527 17.1955 52.2035 14.9795 49.382 12.267C44.2598 7.35058 43.3395 6.53925 42.2012 5.97011C41.6199 5.66738 41.6078 5.65527 41.8984 5.54628C42.9277 5.15878 44.6594 5.15878 45.7855 5.54628ZM39.4766 7.3748C41.5109 8.06503 41.85 8.34355 48.4012 14.6404C51.707 17.8131 54.6375 20.6103 54.9281 20.8525C55.6426 21.4943 56.6961 22.9232 57.2047 23.9283C57.8344 25.1877 58.1371 26.3865 58.2098 27.9244C58.4035 31.7025 56.5871 34.9963 53.0996 37.2002C52.4941 37.5756 51.925 37.9268 51.816 37.9631C51.6344 38.0357 50.375 36.1103 47.1176 30.7943L46.7301 30.1646L47.1539 29.5592C48.0621 28.2271 48.2559 26.6166 47.723 25.0182C47.057 23.0685 44.9984 22.1119 43.3273 22.9596C42.4555 23.3955 39.8156 25.115 39.4523 25.4662C38.9074 26.0111 38.6289 26.7014 38.6289 27.5369C38.6289 28.6873 38.8227 29.1475 39.7188 30.0435C40.9539 31.2787 42.3949 31.7873 43.957 31.533L44.6957 31.4119L46.5727 34.415C47.5898 36.0619 48.7039 37.8541 49.043 38.3869L49.6484 39.3557L48.7766 39.9248C46.2457 41.5596 44.5625 42.0803 42.0559 41.9955C40.7117 41.9471 40.3484 41.8865 39.3555 41.5475C36.6309 40.6271 34.4633 38.726 33.3371 36.2678C33.0344 35.6139 29.3047 24.0736 27.7547 18.9877C27.343 17.6678 27.2219 16.3963 27.3672 15.1732C27.8637 11.2498 30.5277 8.18613 34.3906 7.14472C35.1293 6.95097 35.5895 6.91464 36.8125 6.93886C38.1445 6.97519 38.4715 7.03574 39.4766 7.3748ZM25.2602 18.7576C25.3934 19.351 29.3289 31.9326 29.6438 32.7803C29.7648 33.1314 28.1059 32.8893 26.9918 32.417C26.4105 32.1627 25.1996 31.2303 24.8121 30.7338C23.7223 29.3049 23.577 28.7357 23.1773 24.2553C22.8867 21.0584 22.8504 20.356 22.9715 19.6779C23.141 18.6971 23.7828 17.3166 24.4125 16.59L24.8848 16.0572L24.9816 17.0139C25.0301 17.5467 25.1512 18.3338 25.2602 18.7576ZM17.7039 20.4893C18.3941 20.8646 18.9633 21.6396 19.1449 22.451C19.2781 23.0564 19.266 23.1896 19.0238 23.8799C18.6848 24.8365 18.6 25.333 18.709 25.7568C18.7453 25.9385 19.3387 26.6529 20.0289 27.3674C21.1309 28.4935 21.2883 28.7236 21.482 29.3654C21.8938 30.7217 22.4992 31.7146 23.6133 32.8166C24.7152 33.9307 25.7203 34.5482 27.0645 34.9478C27.791 35.1537 27.8395 35.2021 34.2695 41.5959C37.8297 45.1439 40.8813 48.135 41.0508 48.2439C41.4746 48.5225 42.0316 48.4861 42.8672 48.135C43.7875 47.7475 44.5141 47.7475 45.2648 48.1228C46.7422 48.8857 47.3113 50.2299 46.7906 51.7678C46.4273 52.8092 45.2406 53.6447 44.1023 53.6447C43.4363 53.6447 42.9398 54.2381 42.7703 55.2189C42.6008 56.1392 42.1891 56.8053 41.4262 57.3381C40.9539 57.6771 40.8328 57.7014 39.9004 57.7014C38.968 57.7014 38.8469 57.6771 38.3746 57.3381C37.5148 56.7326 37.1273 56.0787 37.0789 55.1221C37.0426 54.4318 37.0789 54.1775 37.3574 53.5236C37.9387 52.1432 38.8832 53.2451 26.4832 40.8451C20.259 34.6209 15.2699 29.7045 15.0277 29.5955C14.5555 29.3654 14.1316 29.426 13.3203 29.8256C11.4555 30.7338 9.1668 29.2928 9.17891 27.1978C9.19102 25.8537 10.2566 24.6064 11.5887 24.34C11.9762 24.2674 12.4605 24.1221 12.6785 24.0131C13.1023 23.8072 13.4414 23.226 13.4414 22.681C13.4535 21.8213 14.3617 20.6346 15.3063 20.2955C15.9844 20.0412 17.05 20.126 17.7039 20.4893ZM45.3375 25.4662C45.6766 25.9264 45.7492 27.1736 45.4707 27.7428C44.9016 28.881 43.7875 29.4502 42.6734 29.1717C41.9832 28.99 40.9297 28.0939 40.9297 27.6822C40.9297 27.2584 41.1477 27.0646 42.7461 26.0475C44.4656 24.9455 44.8773 24.8607 45.3375 25.4662ZM53.5719 40.2881C53.4629 41.499 53.1602 46.7666 53.1602 47.6142C53.1602 49.0189 53.4387 49.9877 54.5648 52.5307C55.5336 54.7346 55.6063 54.9404 55.5578 55.5459C55.3762 57.665 52.7727 58.5369 51.3316 56.9506C51.0289 56.6236 48.9461 53.8748 48.7523 53.5478C48.6918 53.451 48.7645 53.1361 48.9098 52.7971C49.2609 51.9857 49.4063 50.7748 49.2852 49.8666C48.8977 47.1783 46.0883 45.1076 43.3879 45.5314C42.9641 45.6041 42.4918 45.7252 42.3223 45.7978C42.0195 45.931 41.959 45.8947 41.1355 45.0592C40.3605 44.2842 40.3 44.1994 40.627 44.2842C40.8328 44.3326 41.7289 44.3689 42.625 44.3568C45.5555 44.3326 47.275 43.6908 51.2832 41.1357C52.482 40.3607 53.4992 39.731 53.5477 39.731C53.5961 39.7189 53.6082 39.9732 53.5719 40.2881ZM12.1941 55.3158C12.4121 55.6307 12.8844 56.1998 13.2477 56.5752L13.9137 57.2654L13.4535 57.3986C11.1891 58.0041 8.54922 57.7014 6.29688 56.5752L5.14648 56.006L5.75195 55.9818C7.79844 55.8728 10.1234 55.449 11.1891 54.9767C11.4555 54.8557 11.7098 54.7467 11.7461 54.7467C11.7824 54.7467 11.9762 55.001 12.1941 55.3158Z" fill="white"/>
<path d="M42.2977 13.4414C40.3481 13.841 39.1614 15.7664 39.6579 17.7039C39.8395 18.4063 40.2513 19.1207 40.6872 19.4598C40.7841 19.5445 41.0747 19.6172 41.329 19.6172C41.6802 19.6172 41.8739 19.5324 42.1524 19.266C42.6005 18.8059 42.6247 18.2488 42.2009 17.6797C41.777 17.1105 41.8013 16.5535 42.2493 16.0934C42.5157 15.8391 42.7216 15.7422 43.0485 15.7422C43.4966 15.7422 43.4845 15.7301 44.4895 16.8563C44.9134 17.3285 45.5431 17.3285 46.0274 16.8441C46.4876 16.384 46.4876 15.8754 46.0274 15.0641C45.3009 13.8047 43.7751 13.1387 42.2977 13.4414Z" fill="white"/>
<path d="M33.5553 18.9027C32.4533 19.1207 31.4361 20.0047 31.0607 21.0703C30.7822 21.8695 30.8307 23.0684 31.1697 23.7949C31.5935 24.7031 32.0174 25.0664 32.635 25.0664C33.0709 25.0664 33.2162 25.0059 33.4705 24.691C33.8701 24.2187 33.8822 23.6859 33.4826 23.1047C33.0709 22.4992 33.083 21.9906 33.531 21.5426C33.7975 21.2883 34.0033 21.1914 34.3303 21.1914C34.7783 21.1914 34.7662 21.1793 35.7713 22.3055C36.1951 22.7777 36.8248 22.7777 37.3092 22.2934C37.7693 21.8211 37.7693 21.3246 37.2971 20.5012C36.5947 19.2902 35.0205 18.6 33.5553 18.9027Z" fill="white"/>
</svg>
