<svg width="112" height="40" viewBox="0 0 112 40" fill="none" xmlns="http://www.w3.org/2000/svg">
<g filter="url(#filter0_d_167_3677)">
<path d="M36.6168 33.9744C36.6168 33.9744 18.0731 23.3307 18.0731 10.5582C18.0731 -2.21423 32.496 -3.2786 36.6168 6.71462C40.7376 -3.2786 55.1605 -2.21423 55.1605 10.5582C55.1605 23.3307 36.6168 33.9744 36.6168 33.9744Z" fill="#EE4567"/>
<path d="M30.3656 4.91598C30.3656 5.68727 30.3397 6.71122 30.2879 7.98783L30.249 10.581C30.249 13.1076 30.4303 15.222 30.7928 16.9241C31.3107 19.3178 32.0875 21.1662 33.1233 22.4694C34.0814 23.613 35.2596 24.1848 36.6579 24.1848C37.7455 24.1848 38.7165 23.8524 39.571 23.1875C40.4255 22.496 41.0858 21.6449 41.5519 20.6343C42.3288 18.9853 42.7172 16.9507 42.7172 14.5305C42.7172 13.0677 42.6265 11.3389 42.4453 9.34423C42.2899 7.11016 42.2122 5.43461 42.2122 4.31757C42.2122 3.73246 42.5489 3.36015 43.2221 3.20057C43.8954 3.0144 44.5945 2.92131 45.3196 2.92131C45.5785 2.92131 45.8763 3.09419 46.2129 3.43994C46.5496 3.78569 46.7179 4.158 46.7179 4.55694C46.7179 5.35482 46.679 6.11281 46.6013 6.8309C46.5496 7.62879 46.5237 8.1873 46.5237 8.50646C46.5237 9.51711 46.5755 10.9267 46.679 12.7352C46.7049 13.1874 46.7308 13.7326 46.7567 14.3709C46.7826 15.0092 46.7956 15.7406 46.7956 16.5651C46.7956 18.3736 46.3683 20.1821 45.5138 21.9907C44.6852 23.7726 43.5199 25.2487 42.018 26.4189C40.5162 27.5626 38.8201 28.1344 36.9298 28.1344C34.0296 28.1344 31.7638 27.1769 30.1325 25.262C28.5012 23.3205 27.3877 20.8204 26.7921 17.7619C26.4555 16.0066 26.2354 14.1714 26.1318 12.2565C26.0541 10.3416 26.0153 7.77506 26.0153 4.55694C26.0153 4.1314 26.2095 3.73249 26.5979 3.36015C27.0122 2.9878 27.4524 2.80163 27.9185 2.80163C29.5499 2.80163 30.3656 3.50639 30.3656 4.91598Z" fill="white"/>
<path d="M5.0586 2.72183C5.5506 2.72183 5.9908 2.85481 6.37922 3.12077C6.79353 3.38673 7.03953 3.85214 7.11721 4.51705C7.42794 6.61814 7.62215 8.71923 7.69984 10.8203C7.80341 12.8948 7.8552 15.2486 7.8552 17.8816C7.8552 18.9986 7.76457 21.0332 7.58331 23.9854C8.72266 24.0918 9.60307 24.145 10.2245 24.145C10.6647 24.145 11.6617 24.0785 13.2153 23.9455C14.1216 23.8125 14.9114 23.746 15.5847 23.746C16.2061 23.746 16.7758 23.8125 17.2937 23.9455C17.8116 24.0519 18.8862 24.504 18.8862 24.504C18.8862 24.504 19.7019 25.3152 19.7019 25.9801C19.7019 26.512 19.5336 26.9907 19.197 27.4163C18.8862 27.8418 18.5108 28.0546 18.0705 28.0546C17.7598 28.0546 17.2678 28.0014 16.5946 27.895C15.3775 27.7088 14.2123 27.6157 13.0988 27.6157C12.7363 27.6157 12.322 27.6423 11.8559 27.6955C11.4157 27.7221 11.092 27.7354 10.8848 27.7354C10.2634 27.8152 9.64192 27.8551 9.02045 27.8551C7.75162 27.8551 6.61227 27.7886 5.60239 27.6556C5.0845 27.6024 4.56661 27.403 4.04872 27.0572C3.53083 26.6849 3.27189 26.153 3.27189 25.4615C3.27189 25.0625 3.32368 24.0386 3.42726 22.3896C3.60852 19.6502 3.69915 17.5624 3.69915 16.1262C3.69915 15.0092 3.64736 13.839 3.54378 12.6156C3.4402 11.3921 3.37547 10.6208 3.34958 10.3017C3.11653 8.04103 3 6.1793 3 4.71651C3 4.02502 3.15537 3.51971 3.4661 3.20056C3.80273 2.8814 4.33356 2.72183 5.0586 2.72183Z" fill="white"/>
<path d="M73.4887 5.16822C73.4887 4.39693 73.6571 3.73204 73.9937 3.17352C74.3562 2.58841 74.887 2.29585 75.5862 2.29585C76.1818 2.29585 76.7126 2.41553 77.1787 2.6549C77.6448 2.89426 77.8779 3.2932 77.8779 3.85172C77.8779 4.94216 77.8261 6.47143 77.7225 8.43954C77.6189 10.3545 77.5671 11.7773 77.5671 12.7082C77.5671 14.171 77.6189 16.1258 77.7225 18.5726C77.8261 20.9131 77.8779 22.6285 77.8779 23.719C77.8779 24.5967 77.8649 25.2483 77.839 25.6738C77.839 26.0993 77.606 26.5249 77.1399 26.9504C76.6997 27.3494 76.0134 27.5488 75.0812 27.5488C74.5893 27.5488 74.162 27.469 73.7995 27.3095C73.4629 27.1233 73.2298 26.9238 73.1003 26.711C71.8833 25.1951 70.1095 22.6153 67.779 18.9716C65.1637 14.9024 63.0274 11.7906 61.3702 9.63636C61.5773 11.5513 61.6809 13.8917 61.6809 16.6577C61.6809 17.8811 61.655 19.4769 61.6032 21.445C61.5773 23.3865 61.5255 24.6631 61.4478 25.2749C61.3443 26.0461 61.1112 26.6446 60.7487 27.0701C60.4121 27.469 59.8683 27.6685 59.1174 27.6685C58.5477 27.6685 58.1204 27.5089 57.8356 27.1898C57.5766 26.844 57.4213 26.2589 57.3695 25.4344C57.3436 24.344 57.4083 22.7083 57.5637 20.5275C57.5896 20.1817 57.6284 19.5833 57.6802 18.7322C57.732 17.8811 57.7579 17.1232 57.7579 16.4583C57.7579 14.6231 57.6673 12.522 57.486 10.155C57.3306 7.54857 57.253 5.62035 57.253 4.37034C57.253 3.73203 57.4731 3.24001 57.9133 2.89426C58.3794 2.54851 58.9102 2.37564 59.5058 2.37564C60.0237 2.37564 60.5674 2.50862 61.1371 2.77458C63.364 5.64696 66.3807 9.92892 70.1872 15.6205L73.8383 21.3652C73.8642 20.9397 73.8772 20.3413 73.8772 19.57C73.8772 18.2136 73.8513 16.7508 73.7995 15.1816C73.7477 13.6125 73.7089 12.5486 73.683 11.9901C73.5535 9.41029 73.4887 7.13633 73.4887 5.16822Z" fill="white"/>
<path d="M105.271 27.4678C104.935 27.0156 104.65 26.5236 104.417 25.9917C104.184 25.4331 103.938 24.7682 103.679 23.997C103.627 23.864 103.472 23.465 103.213 22.8001C102.98 22.1352 102.708 21.5634 102.397 21.0847C100.766 21.3241 99.432 21.4437 98.3962 21.4437C97.8266 21.4437 97.1921 21.4304 96.493 21.4038C95.8197 21.3507 95.3148 21.3241 94.9782 21.3241C93.6835 21.2177 92.6477 21.1645 91.8709 21.1645C91.5601 21.59 91.2882 22.0421 91.0552 22.5209C90.848 22.9996 90.5761 23.7177 90.2395 24.6752C89.7734 26.0582 89.372 27.0422 89.0354 27.6273C88.8024 28.0263 88.3492 28.2257 87.676 28.2257C87.1063 28.2257 86.5754 28.1061 86.0835 27.8667C85.6174 27.6007 85.3843 27.2417 85.3843 26.7896C85.5915 25.7789 85.9151 24.7151 86.3553 23.598C86.8214 22.4544 87.4817 20.9384 88.3363 19.0501L89.8899 15.1405C90.7444 12.9064 91.5213 10.9915 92.2204 9.39571C92.9455 7.79995 93.8906 5.91163 95.0559 3.73075C95.2112 3.41159 95.4702 3.14563 95.8327 2.93286C96.1952 2.6935 96.5966 2.57381 97.0368 2.57381C97.5288 2.57381 97.8784 2.61371 98.0855 2.6935C98.3186 2.74669 98.4998 2.85307 98.6293 3.01265C98.7588 3.14563 98.953 3.43819 99.2119 3.89032C100.092 5.29991 100.843 6.7494 101.465 8.23878C102.112 9.72816 102.928 11.7894 103.912 14.4224L104.727 16.5368C105.452 18.4517 106.074 20.0607 106.592 21.364C107.136 22.6406 107.731 23.8108 108.379 24.8746C108.793 25.5661 109 26.0449 109 26.3108C109 26.9491 108.806 27.4412 108.417 27.7869C108.055 28.1061 107.576 28.2656 106.98 28.2656C106.229 28.2656 105.66 27.9997 105.271 27.4678ZM101.271 17.8134C100.856 16.9091 100.261 15.3399 99.4838 13.1059C98.6811 10.7122 97.8784 8.8106 97.0756 7.40101C96.5836 8.67762 95.8586 10.3266 94.9005 12.3479C94.2531 13.5979 93.5151 15.4064 92.6865 17.7735C94.3438 17.9862 96.1305 18.0926 98.0467 18.0926C99.4191 18.0926 100.494 17.9995 101.271 17.8134Z" fill="white"/>
</g>
<defs>
<filter id="filter0_d_167_3677" x="0.282052" y="0" width="111.436" height="39.4105" filterUnits="userSpaceOnUse" color-interpolation-filters="sRGB">
<feFlood flood-opacity="0" result="BackgroundImageFix"/>
<feColorMatrix in="SourceAlpha" type="matrix" values="0 0 0 0 0 0 0 0 0 0 0 0 0 0 0 0 0 0 127 0" result="hardAlpha"/>
<feOffset dy="2.71795"/>
<feGaussianBlur stdDeviation="1.35897"/>
<feComposite in2="hardAlpha" operator="out"/>
<feColorMatrix type="matrix" values="0 0 0 0 0 0 0 0 0 0 0 0 0 0 0 0 0 0 0.25 0"/>
<feBlend mode="normal" in2="BackgroundImageFix" result="effect1_dropShadow_167_3677"/>
<feBlend mode="normal" in="SourceGraphic" in2="effect1_dropShadow_167_3677" result="shape"/>
</filter>
</defs>
</svg>
