<svg width="114" height="42" viewBox="0 0 114 42" fill="none" xmlns="http://www.w3.org/2000/svg">
<g filter="url(#filter0_d_216_3725)">
<path d="M37.5792 33.9744C37.5792 33.9744 19.0355 23.3307 19.0355 10.5582C19.0355 -2.21423 33.4584 -3.2786 37.5792 6.71462C41.7 -3.2786 56.1229 -2.21423 56.1229 10.5582C56.1229 23.3307 37.5792 33.9744 37.5792 33.9744Z" fill="#EE4567"/>
<path d="M31.4046 4.94555C31.4046 5.71684 31.3787 6.74079 31.327 8.0174L31.2881 10.6105C31.2881 13.1371 31.4694 15.2515 31.8319 16.9537C32.3498 19.3473 33.1266 21.1958 34.1624 22.499C35.1205 23.6426 36.2987 24.2144 37.697 24.2144C38.7845 24.2144 39.7556 23.882 40.6101 23.2171C41.4646 22.5256 42.1249 21.6745 42.591 20.6638C43.3679 19.0149 43.7563 16.9803 43.7563 14.56C43.7563 13.0972 43.6656 11.3685 43.4844 9.3738C43.329 7.13973 43.2513 5.46417 43.2513 4.34714C43.2513 3.76202 43.588 3.38971 44.2612 3.23014C44.9345 3.04396 45.6336 2.95088 46.3587 2.95088C46.6176 2.95088 46.9154 3.12375 47.252 3.4695C47.5886 3.81525 47.757 4.18756 47.757 4.5865C47.757 5.38438 47.7181 6.14237 47.6404 6.86047C47.5886 7.65835 47.5627 8.21687 47.5627 8.53602C47.5627 9.54667 47.6145 10.9563 47.7181 12.7648C47.744 13.2169 47.7699 13.7622 47.7958 14.4005C47.8217 15.0388 47.8346 15.7702 47.8346 16.5946C47.8346 18.4032 47.4074 20.2117 46.5529 22.0202C45.7242 23.8022 44.559 25.2783 43.0571 26.4485C41.5552 27.5921 39.8592 28.1639 37.9689 28.1639C35.0687 28.1639 32.8029 27.2065 31.1716 25.2916C29.5402 23.35 28.4268 20.85 27.8312 17.7915C27.4946 16.0361 27.2745 14.201 27.1709 12.2861C27.0932 10.3712 27.0544 7.80463 27.0544 4.5865C27.0544 4.16096 27.2486 3.76206 27.637 3.38971C28.0513 3.01737 28.4915 2.8312 28.9576 2.8312C30.589 2.8312 31.4046 3.53596 31.4046 4.94555Z" fill="white"/>
<path d="M6.0586 2.72186C6.5506 2.72186 6.9908 2.85484 7.37922 3.1208C7.79353 3.38676 8.03953 3.85218 8.11721 4.51708C8.42794 6.61817 8.62215 8.71926 8.69984 10.8204C8.80341 12.8948 8.8552 15.2486 8.8552 17.8816C8.8552 18.9986 8.76457 21.0332 8.58331 23.9854C9.72266 24.0918 10.6031 24.145 11.2245 24.145C11.6647 24.145 12.6617 24.0785 14.2153 23.9455C15.1216 23.8125 15.9114 23.746 16.5847 23.746C17.2061 23.746 17.7758 23.8125 18.2937 23.9455C18.8116 24.0519 19.8862 24.504 19.8862 24.504C19.8862 24.504 20.7019 25.3152 20.7019 25.9801C20.7019 26.512 20.5336 26.9908 20.197 27.4163C19.8862 27.8418 19.5108 28.0546 19.0705 28.0546C18.7598 28.0546 18.2678 28.0014 17.5946 27.895C16.3775 27.7089 15.2123 27.6158 14.0988 27.6158C13.7363 27.6158 13.322 27.6424 12.8559 27.6956C12.4157 27.7222 12.092 27.7355 11.8848 27.7355C11.2634 27.8152 10.6419 27.8551 10.0204 27.8551C8.75162 27.8551 7.61227 27.7887 6.60239 27.6557C6.0845 27.6025 5.56661 27.403 5.04872 27.0573C4.53083 26.6849 4.27189 26.153 4.27189 25.4615C4.27189 25.0626 4.32368 24.0386 4.42726 22.3896C4.60852 19.6503 4.69915 17.5625 4.69915 16.1263C4.69915 15.0092 4.64736 13.839 4.54378 12.6156C4.4402 11.3922 4.37547 10.6209 4.34958 10.3017C4.11653 8.04106 4 6.17933 4 4.71655C4 4.02505 4.15537 3.51974 4.4661 3.20059C4.80273 2.88144 5.33356 2.72186 6.0586 2.72186Z" fill="#63126A"/>
<path d="M74.4887 5.16819C74.4887 4.3969 74.6571 3.73201 74.9937 3.17349C75.3562 2.58838 75.887 2.29582 76.5862 2.29582C77.1818 2.29582 77.7126 2.41551 78.1787 2.65487C78.6448 2.89423 78.8779 3.29317 78.8779 3.85169C78.8779 4.94213 78.8261 6.4714 78.7225 8.43951C78.6189 10.3544 78.5671 11.7773 78.5671 12.7082C78.5671 14.171 78.6189 16.1258 78.7225 18.5726C78.8261 20.9131 78.8779 22.6285 78.8779 23.719C78.8779 24.5966 78.8649 25.2482 78.839 25.6738C78.839 26.0993 78.606 26.5248 78.1399 26.9504C77.6997 27.3493 77.0134 27.5488 76.0812 27.5488C75.5893 27.5488 75.162 27.469 74.7995 27.3094C74.4629 27.1233 74.2298 26.9238 74.1003 26.711C72.8833 25.195 71.1095 22.6152 68.779 18.9716C66.1637 14.9024 64.0274 11.7906 62.3702 9.63633C62.5773 11.5513 62.6809 13.8917 62.6809 16.6577C62.6809 17.8811 62.655 19.4769 62.6032 21.445C62.5773 23.3865 62.5255 24.6631 62.4478 25.2748C62.3443 26.0461 62.1112 26.6445 61.7487 27.0701C61.4121 27.469 60.8683 27.6685 60.1174 27.6685C59.5477 27.6685 59.1204 27.5089 58.8356 27.1897C58.5766 26.844 58.4213 26.2589 58.3695 25.4344C58.3436 24.344 58.4083 22.7083 58.5637 20.5274C58.5896 20.1817 58.6284 19.5833 58.6802 18.7322C58.732 17.8811 58.7579 17.1231 58.7579 16.4582C58.7579 14.6231 58.6673 12.522 58.486 10.155C58.3306 7.54854 58.253 5.62032 58.253 4.37031C58.253 3.732 58.4731 3.23998 58.9133 2.89423C59.3794 2.54848 59.9102 2.37561 60.5058 2.37561C61.0237 2.37561 61.5674 2.50859 62.1371 2.77455C64.364 5.64693 67.3807 9.92889 71.1872 15.6205L74.8383 21.3652C74.8642 20.9397 74.8772 20.3413 74.8772 19.57C74.8772 18.2136 74.8513 16.7508 74.7995 15.1816C74.7477 13.6124 74.7089 12.5486 74.683 11.9901C74.5535 9.41026 74.4887 7.1363 74.4887 5.16819Z" fill="#63126A"/>
<path d="M106.271 27.4678C105.935 27.0156 105.65 26.5236 105.417 25.9917C105.184 25.4331 104.938 24.7682 104.679 23.997C104.627 23.864 104.471 23.465 104.213 22.8001C103.979 22.1352 103.708 21.5634 103.397 21.0847C101.766 21.3241 100.432 21.4437 99.3962 21.4437C98.8265 21.4437 98.1921 21.4304 97.4929 21.4038C96.8197 21.3507 96.3147 21.3241 95.9781 21.3241C94.6834 21.2177 93.6476 21.1645 92.8708 21.1645C92.5601 21.59 92.2882 22.0421 92.0551 22.5209C91.848 22.9996 91.5761 23.7177 91.2394 24.6752C90.7733 26.0582 90.372 27.0422 90.0354 27.6273C89.8023 28.0263 89.3491 28.2257 88.6759 28.2257C88.1062 28.2257 87.5754 28.1061 87.0834 27.8667C86.6173 27.6007 86.3842 27.2417 86.3842 26.7896C86.5914 25.7789 86.9151 24.7151 87.3553 23.598C87.8214 22.4544 88.4817 20.9384 89.3362 19.0501L90.8899 15.1405C91.7444 12.9064 92.5212 10.9915 93.2204 9.39571C93.9454 7.79995 94.8906 5.91163 96.0558 3.73075C96.2112 3.41159 96.4701 3.14563 96.8326 2.93286C97.1952 2.6935 97.5965 2.57381 98.0367 2.57381C98.5287 2.57381 98.8783 2.61371 99.0854 2.6935C99.3185 2.74669 99.4998 2.85307 99.6292 3.01265C99.7587 3.14563 99.9529 3.43819 100.212 3.89032C101.092 5.29991 101.843 6.7494 102.465 8.23878C103.112 9.72816 103.928 11.7894 104.912 14.4224L105.727 16.5368C106.452 18.4517 107.074 20.0607 107.592 21.364C108.136 22.6406 108.731 23.8108 109.378 24.8746C109.793 25.5661 110 26.0449 110 26.3108C110 26.9491 109.806 27.4412 109.417 27.7869C109.055 28.1061 108.576 28.2656 107.98 28.2656C107.229 28.2656 106.66 27.9997 106.271 27.4678ZM102.27 17.8134C101.856 16.9091 101.261 15.3399 100.484 13.1059C99.681 10.7122 98.8783 8.8106 98.0756 7.40101C97.5836 8.67762 96.8585 10.3266 95.9004 12.3479C95.2531 13.5979 94.5151 15.4064 93.6865 17.7735C95.3437 17.9862 97.1304 18.0926 99.0466 18.0926C100.419 18.0926 101.494 17.9995 102.27 17.8134Z" fill="#63126A"/>
</g>
<defs>
<filter id="filter0_d_216_3725" x="0" y="0" width="114" height="41.9746" filterUnits="userSpaceOnUse" color-interpolation-filters="sRGB">
<feFlood flood-opacity="0" result="BackgroundImageFix"/>
<feColorMatrix in="SourceAlpha" type="matrix" values="0 0 0 0 0 0 0 0 0 0 0 0 0 0 0 0 0 0 127 0" result="hardAlpha"/>
<feOffset dy="4"/>
<feGaussianBlur stdDeviation="2"/>
<feComposite in2="hardAlpha" operator="out"/>
<feColorMatrix type="matrix" values="0 0 0 0 0 0 0 0 0 0 0 0 0 0 0 0 0 0 0.25 0"/>
<feBlend mode="normal" in2="BackgroundImageFix" result="effect1_dropShadow_216_3725"/>
<feBlend mode="normal" in="SourceGraphic" in2="effect1_dropShadow_216_3725" result="shape"/>
</filter>
</defs>
</svg>
