<svg width="164" height="58" viewBox="0 0 164 58" fill="none" xmlns="http://www.w3.org/2000/svg">
<g filter="url(#filter0_d_254_639)">
<path d="M53.4738 50C53.4738 50 26.183 34.3358 26.183 15.5386C26.183 -3.25868 47.4092 -4.82511 53.4738 9.88189C59.5384 -4.82511 80.7646 -3.25868 80.7646 15.5386C80.7646 34.3358 53.4738 50 53.4738 50Z" fill="#EE4567"/>
<path d="M44.2738 7.23485C44.2738 8.36995 44.2357 9.87689 44.1595 11.7557L44.1023 15.572C44.1023 19.2904 44.3691 22.4021 44.9026 24.9072C45.6648 28.4299 46.8081 31.1502 48.3324 33.0682C49.7424 34.7513 51.4764 35.5928 53.5343 35.5928C55.1348 35.5928 56.5639 35.1035 57.8215 34.125C59.0791 33.1073 60.0509 31.8548 60.7368 30.3674C61.8801 27.9407 62.4517 24.9463 62.4517 21.3845C62.4517 19.2317 62.3183 16.6875 62.0516 13.7519C61.8229 10.464 61.7086 7.9981 61.7086 6.35417C61.7086 5.49305 62.204 4.94513 63.1948 4.71028C64.1857 4.43629 65.2146 4.29929 66.2816 4.29929C66.6627 4.29929 67.101 4.55371 67.5964 5.06255C68.0918 5.57139 68.3395 6.11932 68.3395 6.70644C68.3395 7.88068 68.2823 8.99621 68.168 10.053C68.0918 11.2273 68.0537 12.0492 68.0537 12.5189C68.0537 14.0063 68.1299 16.0808 68.2823 18.7424C68.3205 19.4078 68.3586 20.2102 68.3967 21.1496C68.4348 22.089 68.4538 23.1654 68.4538 24.3788C68.4538 27.0404 67.825 29.702 66.5675 32.3636C65.348 34.9861 63.6331 37.1585 61.4228 38.8807C59.2125 40.5638 56.7163 41.4053 53.9344 41.4053C49.6662 41.4053 46.3317 39.9962 43.9309 37.178C41.53 34.3207 39.8913 30.6414 39.0148 26.1402C38.5194 23.5568 38.1955 20.8561 38.0431 18.0379C37.9287 15.2197 37.8716 11.4425 37.8716 6.70644C37.8716 6.08017 38.1574 5.49311 38.729 4.94513C39.3387 4.39715 39.9866 4.12316 40.6726 4.12316C43.0734 4.12316 44.2738 5.16035 44.2738 7.23485Z" fill="white"/>
<path d="M7.02964 4.00571C7.75371 4.00571 8.40156 4.20142 8.97319 4.59283C9.58293 4.98425 9.94496 5.66919 10.0593 6.64773C10.5166 9.7399 10.8024 12.8321 10.9167 15.9242C11.0692 18.9773 11.1454 22.4413 11.1454 26.3163C11.1454 27.9602 11.012 30.9545 10.7452 35.2992C12.422 35.4558 13.7177 35.5341 14.6323 35.5341C15.2802 35.5341 16.7474 35.4362 19.0339 35.2405C20.3677 35.0448 21.53 34.947 22.5209 34.947C23.4355 34.947 24.2739 35.0448 25.036 35.2405C25.7982 35.3971 27.3797 36.0625 27.3797 36.0625C27.3797 36.0625 28.5801 37.2563 28.5801 38.2348C28.5801 39.0177 28.3324 39.7222 27.837 40.3485C27.3797 40.9748 26.8271 41.2879 26.1793 41.2879C25.722 41.2879 24.9979 41.2096 24.0071 41.053C22.216 40.779 20.5011 40.642 18.8624 40.642C18.3289 40.642 17.7191 40.6812 17.0332 40.7595C16.3853 40.7986 15.909 40.8182 15.6041 40.8182C14.6895 40.9356 13.7749 40.9943 12.8603 40.9943C10.993 40.9943 9.31617 40.8965 7.82993 40.7008C7.06775 40.6225 6.30558 40.3289 5.5434 39.8201C4.78123 39.2721 4.40014 38.4893 4.40014 37.4716C4.40014 36.8845 4.47636 35.3775 4.6288 32.9508C4.89556 28.9192 5.02894 25.8466 5.02894 23.733C5.02894 22.089 4.95272 20.3668 4.80028 18.5663C4.64785 16.7658 4.55258 15.6307 4.51447 15.161C4.17149 11.834 4 9.09406 4 6.94129C4 5.92361 4.22865 5.17995 4.68596 4.71025C5.18137 4.24056 5.9626 4.00571 7.02964 4.00571Z" fill="white"/>
<path d="M107.738 7.60606C107.738 6.47096 107.986 5.49244 108.481 4.67047C109.015 3.80936 109.796 3.3788 110.825 3.3788C111.701 3.3788 112.483 3.55494 113.169 3.90721C113.855 4.25948 114.198 4.8466 114.198 5.66857C114.198 7.27337 114.121 9.52399 113.969 12.4205C113.817 15.2386 113.74 17.3327 113.74 18.7026C113.74 20.8554 113.817 23.7323 113.969 27.3333C114.121 30.7778 114.198 33.3024 114.198 34.9072C114.198 36.1989 114.179 37.1578 114.14 37.7841C114.14 38.4104 113.797 39.0366 113.112 39.6629C112.464 40.25 111.454 40.5436 110.082 40.5436C109.358 40.5436 108.729 40.4261 108.195 40.1913C107.7 39.9173 107.357 39.6237 107.167 39.3106C105.375 37.0795 102.765 33.2828 99.3352 27.9205C95.4862 21.9318 92.3422 17.3523 89.9033 14.1818C90.2081 17 90.3606 20.4444 90.3606 24.5151C90.3606 26.3157 90.3225 28.6641 90.2462 31.5606C90.2081 34.4179 90.1319 36.2967 90.0176 37.197C89.8652 38.3321 89.5222 39.2128 88.9887 39.839C88.4932 40.4261 87.693 40.7197 86.5878 40.7197C85.7494 40.7197 85.1206 40.4848 84.7014 40.0152C84.3203 39.5063 84.0917 38.6452 84.0155 37.4318C83.9774 35.827 84.0726 33.4198 84.3013 30.2102C84.3394 29.7014 84.3966 28.8207 84.4728 27.5682C84.549 26.3157 84.5871 25.2001 84.5871 24.2216C84.5871 21.5208 84.4537 18.4287 84.187 14.9451C83.9583 11.1092 83.844 8.27146 83.844 6.43182C83.844 5.49242 84.1679 4.76832 84.8158 4.25948C85.5017 3.75064 86.2829 3.49622 87.1594 3.49622C87.9216 3.49622 88.7219 3.69193 89.5603 4.08334C92.8376 8.31062 97.2773 14.6124 102.879 22.9886L108.253 31.4432C108.291 30.8169 108.31 29.9362 108.31 28.8011C108.31 26.8049 108.272 24.6521 108.195 22.3428C108.119 20.0335 108.062 18.4678 108.024 17.6458C107.833 13.8491 107.738 10.5025 107.738 7.60606Z" fill="white"/>
<path d="M154.512 40.4242C154.017 39.7588 153.598 39.0347 153.255 38.2519C152.912 37.4299 152.55 36.4514 152.169 35.3163C152.092 35.1206 151.864 34.5335 151.483 33.5549C151.14 32.5764 150.74 31.7348 150.282 31.0303C147.881 31.3826 145.919 31.5587 144.394 31.5587C143.556 31.5587 142.622 31.5391 141.593 31.5C140.603 31.4217 139.86 31.3826 139.364 31.3826C137.459 31.226 135.934 31.1477 134.791 31.1477C134.334 31.774 133.934 32.4394 133.591 33.1439C133.286 33.8485 132.886 34.9053 132.39 36.3144C131.704 38.3498 131.114 39.798 130.618 40.6591C130.275 41.2462 129.608 41.5398 128.617 41.5398C127.779 41.5398 126.998 41.3636 126.274 41.0114C125.588 40.6199 125.245 40.0915 125.245 39.4261C125.55 37.9388 126.026 36.3731 126.674 34.7292C127.36 33.0461 128.332 30.815 129.589 28.036L131.876 22.2822C133.133 18.9943 134.277 16.1761 135.306 13.8277C136.373 11.4792 137.764 8.70013 139.478 5.49053C139.707 5.02084 140.088 4.62942 140.622 4.31629C141.155 3.96402 141.746 3.78788 142.394 3.78788C143.118 3.78788 143.632 3.84659 143.937 3.96402C144.28 4.0423 144.547 4.19886 144.737 4.43371C144.928 4.62942 145.214 5.05998 145.595 5.72538C146.891 7.79987 147.996 9.93308 148.91 12.125C149.863 14.3169 151.064 17.3504 152.512 21.2254L153.712 24.3371C154.779 27.1553 155.694 29.5234 156.456 31.4413C157.256 33.3201 158.133 35.0423 159.085 36.608C159.695 37.6256 160 38.3302 160 38.7216C160 39.661 159.714 40.3851 159.143 40.8939C158.609 41.3636 157.904 41.5985 157.028 41.5985C155.922 41.5985 155.084 41.2071 154.512 40.4242ZM148.625 26.2159C148.015 24.8851 147.138 22.5758 145.995 19.2879C144.814 15.7652 143.632 12.9665 142.451 10.892C141.727 12.7708 140.66 15.1976 139.25 18.1723C138.297 20.012 137.211 22.6736 135.992 26.1572C138.43 26.4703 141.06 26.6269 143.88 26.6269C145.9 26.6269 147.481 26.4899 148.625 26.2159Z" fill="white"/>
</g>
<defs>
<filter id="filter0_d_254_639" x="0" y="0" width="164" height="58" filterUnits="userSpaceOnUse" color-interpolation-filters="sRGB">
<feFlood flood-opacity="0" result="BackgroundImageFix"/>
<feColorMatrix in="SourceAlpha" type="matrix" values="0 0 0 0 0 0 0 0 0 0 0 0 0 0 0 0 0 0 127 0" result="hardAlpha"/>
<feOffset dy="4"/>
<feGaussianBlur stdDeviation="2"/>
<feComposite in2="hardAlpha" operator="out"/>
<feColorMatrix type="matrix" values="0 0 0 0 0 0 0 0 0 0 0 0 0 0 0 0 0 0 0.25 0"/>
<feBlend mode="normal" in2="BackgroundImageFix" result="effect1_dropShadow_254_639"/>
<feBlend mode="normal" in="SourceGraphic" in2="effect1_dropShadow_254_639" result="shape"/>
</filter>
</defs>
</svg>
