<svg width="61" height="61" viewBox="0 0 61 61" fill="none" xmlns="http://www.w3.org/2000/svg">
<g clip-path="url(#clip0_199_1488)">
<path d="M19.1219 0.214497C16.8106 1.01274 15.2379 3.1811 15.2499 5.57582C15.2499 5.88559 15.5358 8.00629 15.8813 10.2819L16.5127 14.4399L15.6668 15.0832C11.9377 17.883 9.50728 22.327 9.20942 26.8662C9.13794 27.9147 9.12603 27.9623 8.53032 28.8321C7.21978 30.7383 5.99263 33.5858 5.53989 35.7422C4.84888 39.0186 4.97993 42.5213 5.89732 45.6666C6.55259 47.9303 7.94653 50.6586 9.269 52.2789C9.49536 52.553 9.66216 52.8032 9.63833 52.827C9.6145 52.8508 9.41196 52.958 9.19751 53.0653C8.62564 53.3631 7.92271 54.1137 7.54146 54.8286C7.23169 55.4004 7.20786 55.5672 7.20786 56.7229C7.20786 57.9262 7.23169 58.0215 7.62485 58.8079C8.11333 59.7729 8.73286 60.2495 9.98384 60.6545C10.6629 60.8809 11.1514 60.9286 13.2364 60.9762C15.4524 61.0239 15.786 61 16.6915 60.7737C17.2395 60.6307 18.0973 60.3329 18.5977 60.0946L19.5151 59.6657L20.2776 59.9159C24.6501 61.3575 29.9995 61.3813 34.4911 59.9754L35.4323 59.6776L36.3377 60.0946C37.8627 60.8094 38.4227 60.9166 40.9485 60.9643C42.7833 61.012 43.4504 60.9762 44.2249 60.8213C45.4163 60.583 46.4647 60.0469 46.9532 59.4274C47.3225 58.9746 47.3225 58.9746 48.1922 58.9746C51.4329 58.9746 53.9706 56.3297 53.9706 52.9461C53.9706 52.1121 53.9706 52.1241 55.7338 49.6579C56.1866 49.0264 56.0198 48.2758 55.3407 47.9661C54.4829 47.5491 53.5417 47.3823 52.0047 47.3465C50.7895 47.3227 50.3129 47.2631 49.8006 47.0725C49.4432 46.9414 49.0501 46.8342 48.919 46.8223C48.7641 46.8223 48.7284 46.7627 48.7879 46.6079C49.0262 45.9883 49.4432 44.3561 49.61 43.3672C50.4797 38.3038 49.3002 32.9305 46.4051 28.7606C45.9524 28.1053 45.8928 27.9385 45.8213 27.0926C45.4639 22.9346 43.8555 19.42 41.0438 16.6202C40.3885 15.9649 39.5426 15.2143 39.1733 14.9641C38.792 14.702 38.4823 14.428 38.4823 14.3565C38.4823 14.285 38.7563 12.4622 39.078 10.3057C39.7452 5.94516 39.8047 4.89672 39.4354 3.80063C38.6252 1.41782 36.6356 4.19617e-05 34.086 4.19617e-05C31.8819 4.19617e-05 30.0233 1.11996 29.0463 3.02621C28.4268 4.22953 28.3672 5.08735 28.6532 8.69731C28.7485 9.91254 28.8319 10.961 28.8319 11.0325C28.8319 11.104 28.3553 11.1516 27.4737 11.1516H26.1155L26.1631 10.7942C26.187 10.5916 26.2942 9.26918 26.3895 7.86332C26.5801 5.01586 26.5206 4.32485 25.9249 3.02621C25.353 1.79906 23.9352 0.607658 22.4936 0.178753C21.6477 -0.0714417 19.8963 -0.0476151 19.1219 0.214497ZM22.0647 2.3352C23.2204 2.71645 24.1258 3.84829 24.2807 5.07543C24.3999 6.05239 24.0186 11.3184 23.8161 11.4375C23.7327 11.4971 23.4229 11.5686 23.125 11.6163C22.434 11.7235 20.4444 12.3787 19.3721 12.8672C18.9194 13.0698 18.5381 13.2127 18.5262 13.2008C18.5143 13.177 18.2522 11.4614 17.9424 9.38832C17.3586 5.50434 17.3348 5.09926 17.7161 4.20571C17.9663 3.58617 18.8122 2.74028 19.4793 2.43051C20.1942 2.09692 21.2545 2.04926 22.0647 2.3352ZM35.6586 2.502C36.7428 3.05004 37.5292 4.2891 37.5292 5.45668C37.5292 6.0643 36.5165 13.0936 36.4092 13.1889C36.3854 13.2246 36.0995 13.1055 35.7778 12.9506C34.9676 12.5336 33.0137 11.8664 31.9057 11.6163C31.0598 11.4375 30.9764 11.3899 30.9764 11.1278C30.9764 10.9729 30.893 9.71 30.7858 8.31606C30.6786 6.92211 30.619 5.50434 30.6547 5.17075C30.7739 4.01508 31.5483 2.96664 32.692 2.4186C33.5141 2.03735 34.8008 2.07309 35.6586 2.502ZM29.9637 13.4748C32.6682 13.8204 35.4204 14.9284 37.7317 16.6321C40.7459 18.8481 42.8309 22.1245 43.4981 25.7344C43.7364 27.0569 43.6768 29.4278 43.367 30.7383C43.2122 31.3579 43.0692 32.1204 43.0454 32.4301C42.9977 32.9305 43.0215 33.0258 43.3194 33.2998C43.653 33.6096 44.1653 33.693 44.5704 33.4786C44.8682 33.3118 45.0946 32.859 45.2852 32.0012L45.4401 31.3102L45.9405 32.2991C46.56 33.5381 47.0961 35.1227 47.4297 36.7311C47.7752 38.3157 47.7991 41.175 47.4893 42.9502C46.9651 45.9526 45.309 49.5268 43.4624 51.6118C43.0811 52.0407 43.0573 52.0526 42.5331 51.9454C42.2352 51.8858 41.6038 51.8381 41.1272 51.8262C40.3647 51.8262 40.2217 51.862 39.9715 52.1241C39.5665 52.5172 39.5665 53.2321 39.9715 53.6133C40.2098 53.8278 40.46 53.8993 41.3536 53.9827C43.3909 54.1733 45.035 54.9358 45.5473 55.9127C45.7499 56.3059 45.7618 56.4489 45.6545 57.0088C45.4282 58.1288 45.0231 58.4862 43.7126 58.7364C42.8667 58.9032 39.7452 58.8913 38.9112 58.7125C38.5299 58.6411 37.7913 58.3551 37.2551 58.093C36.2067 57.5688 35.8254 57.1637 35.6825 56.3893C35.5633 55.7221 35.2059 55.4004 34.6102 55.4004C33.9073 55.4004 33.5499 55.7936 33.5737 56.568C33.5737 56.8778 33.6452 57.2829 33.7167 57.4735C33.7881 57.6641 33.8001 57.8547 33.7524 57.9024C33.7047 57.95 33.3116 58.0692 32.8827 58.1883C29.3561 59.0938 25.1266 59.058 21.7311 58.0811L21.1235 57.9024L21.3022 57.2233C21.6 56.0676 21.2545 55.4004 20.3729 55.4004C19.7653 55.4004 19.3602 55.7936 19.253 56.4727C19.1577 57.1161 18.6573 57.6403 17.7161 58.1049C16.3698 58.784 15.7264 58.8913 13.2364 58.8317C11.1633 58.7959 10.9846 58.7721 10.4366 58.4981C9.6145 58.093 9.37622 57.7118 9.31665 56.7825C9.269 56.0319 9.269 56.008 9.75747 55.4838C10.52 54.6618 12.3309 53.9827 13.7963 53.9707C14.5827 53.9707 15.0831 53.7086 15.2379 53.2202C15.3928 52.7555 15.2856 52.3623 14.9043 52.0168C14.6899 51.8143 14.5231 51.8024 13.4985 51.862C12.8551 51.8977 12.2237 51.9692 12.0926 51.993C11.902 52.0526 11.7114 51.8739 11.1872 51.1948C9.35239 48.8358 8.16099 46.2981 7.54146 43.3672C7.2436 41.9375 7.23169 38.137 7.54146 36.6954C7.85122 35.2299 8.41118 33.5739 8.99497 32.4063L9.49536 31.4055L9.6979 32.1084C9.80513 32.5016 9.96001 32.9424 10.0196 33.0735C10.1745 33.3713 10.6034 33.5977 11.0323 33.5977C11.3897 33.5977 12.0331 33.002 12.0331 32.6803C12.0331 32.5612 11.8901 31.9297 11.7233 31.2745C11.1395 28.9989 11.211 26.1276 11.9258 23.9473C13.3436 19.5629 17.0131 15.9172 21.612 14.3088C24.3522 13.3438 26.9256 13.0936 29.9637 13.4748ZM48.4543 48.9192C48.6807 48.9668 48.8475 49.0979 48.9547 49.3362C49.1573 49.8008 49.7292 49.9557 50.4678 49.7293C51.1946 49.5149 52.4217 49.3957 52.7434 49.5268C52.9936 49.6221 52.9817 49.6459 52.4217 50.5514C51.8618 51.4569 51.8499 51.4926 51.8022 52.6364C51.7665 53.5657 51.695 53.9231 51.4448 54.4711C50.8848 55.6745 49.6815 56.6157 48.4663 56.7825L47.9301 56.8539L47.8467 56.2106C47.6918 54.9834 46.7983 53.6014 45.8094 53.0653C45.5831 52.9461 45.3924 52.8151 45.3924 52.7793C45.3924 52.7436 45.7379 52.2313 46.1668 51.6475C46.5838 51.0518 47.1319 50.1821 47.3821 49.7174C47.8467 48.8239 47.8706 48.8 48.4543 48.9192Z" fill="white"/>
<path d="M19.3365 21.8383C17.4184 23.7445 17.2754 23.9232 17.2754 24.3164C17.2754 24.8406 17.5852 25.2576 18.0855 25.4363C18.3119 25.5078 18.5979 25.7818 18.86 26.1511C19.7297 27.4259 21.493 27.8429 22.8631 27.1043C23.9234 26.5205 24.4477 25.6031 24.4477 24.3402C24.4477 23.8279 24.3762 23.4466 24.1975 23.0654C23.9473 22.565 23.2086 21.7787 22.875 21.6595C22.7559 21.6238 22.7439 21.5285 22.8393 21.2545C23.1133 20.4681 22.6367 19.7771 21.8266 19.7771C21.4453 19.7771 21.2309 19.9439 19.3365 21.8383ZM22.0053 23.7326C22.4937 24.1853 22.3389 24.9836 21.6955 25.2457C20.802 25.615 20.0752 24.4593 20.7543 23.7445C21.0879 23.3871 21.6359 23.3871 22.0053 23.7326Z" fill="white"/>
<path d="M32.5847 19.9203C32.4536 19.9918 32.2868 20.1467 32.2034 20.242C32.0247 20.4684 32.0009 21.2309 32.1677 21.3977C32.2511 21.4811 32.12 21.6359 31.7626 21.8861C30.19 22.9941 30.0708 25.3412 31.5124 26.6756C32.0247 27.1521 32.9421 27.5215 33.5974 27.5215C34.5862 27.5215 35.8134 26.7947 36.278 25.9369C36.421 25.6629 36.6116 25.4961 36.8261 25.4484C37.3622 25.3412 37.6482 24.9719 37.6482 24.3881C37.6482 23.8877 37.6124 23.852 35.587 21.8266C33.8476 20.099 33.4663 19.7773 33.1685 19.7773C32.9778 19.7773 32.7157 19.8488 32.5847 19.9203ZM34.1931 23.709C34.7054 24.2213 34.5624 25.0076 33.8952 25.2578C33.3472 25.4604 32.6443 24.9719 32.6443 24.4C32.6443 23.6375 33.6689 23.1848 34.1931 23.709Z" fill="white"/>
<path d="M26.3301 26.509C24.817 26.9975 24.0307 28.6178 24.6502 29.9641C24.9242 30.5479 25.4127 31.0244 26.0084 31.2746C26.5088 31.4772 26.5445 31.644 26.2228 32.3588C25.9369 33.0022 25.4246 33.3477 24.5787 33.4787C23.7924 33.6098 23.4945 33.86 23.3873 34.4676C23.3277 34.8369 23.3754 34.9442 23.6971 35.2778C24.0545 35.6352 24.1141 35.6471 24.817 35.5994C25.5795 35.5518 26.5684 35.1586 27.1879 34.6582L27.4977 34.408L27.9623 34.7774C29.0107 35.6233 30.6549 35.8973 31.2625 35.3254C31.4889 35.111 31.5723 34.9203 31.5723 34.5868C31.5603 33.9077 31.1195 33.4787 30.4285 33.4787C29.5469 33.4787 28.5818 32.5614 28.6057 31.7393C28.6057 31.4414 28.701 31.3461 29.2252 31.0959C31.0719 30.1905 30.9527 27.6647 29.0227 26.6639C28.415 26.3541 27.0568 26.2707 26.3301 26.509Z" fill="white"/>
<path d="M16.8468 28.5223C16.5966 28.6295 16.4179 28.8201 16.3345 29.1061C16.1796 29.5588 16.2511 29.8447 16.5966 30.226C16.823 30.4881 16.9302 30.5 18.348 30.5C19.7658 30.5 19.873 30.4881 20.1113 30.226C20.4925 29.8209 20.4687 29.0822 20.0636 28.701C19.7896 28.4389 19.6466 28.415 18.4909 28.3793C17.5855 28.3555 17.1089 28.4031 16.8468 28.5223Z" fill="white"/>
<path d="M35.1462 28.5699C34.479 28.9035 34.3599 29.7137 34.9079 30.2617C35.1224 30.4762 35.313 30.5 36.6354 30.5C38.1009 30.5 38.1366 30.4881 38.4226 30.1902C38.9468 29.6184 38.7681 28.8201 38.0651 28.5223C37.4575 28.2721 35.6704 28.2959 35.1462 28.5699Z" fill="white"/>
<path d="M21.4812 43.7256C20.8379 43.9877 20.3732 45.4531 20.3613 47.2045C20.3613 49.1226 20.9094 50.4213 22.077 51.1957C22.8037 51.6842 23.4232 51.851 24.424 51.8629C25.401 51.8629 26.2945 51.5769 27.0094 51.0289L27.5455 50.6119L27.8672 50.9097C28.9156 51.8986 30.8219 52.1726 32.335 51.5293C32.9902 51.2553 33.8957 50.3617 34.1697 49.6945C34.4437 49.0631 34.6701 47.8836 34.6701 47.0615C34.6701 45.751 34.0506 43.9281 33.5621 43.7732C32.74 43.5111 32.049 43.94 32.049 44.6787C32.049 44.9289 32.1205 45.334 32.2158 45.5842C32.7758 47.1926 32.5137 48.7652 31.5605 49.4681C31.1316 49.7898 30.0594 49.7898 29.5352 49.4801C28.6178 48.9558 28.3438 47.4904 28.8322 45.6914C28.9871 45.1076 29.0705 44.5715 29.0229 44.3928C28.9275 44.0115 28.4867 43.7017 28.034 43.7137C27.617 43.7256 27.3191 43.7256 26.8783 43.7137C26.4852 43.7137 26.0086 44.1068 25.949 44.4881C25.9252 44.6191 25.9967 45.0838 26.1039 45.5127C26.509 47.0972 26.4732 48.3125 25.9848 48.9678C25.4486 49.6945 24.2453 49.9447 23.4471 49.4801C22.5297 48.9558 22.2437 47.3117 22.768 45.5484C22.9943 44.7978 23.0062 44.643 22.8752 44.3094C22.768 44.0711 22.5654 43.8685 22.3271 43.7732C21.8744 43.5826 21.8387 43.5826 21.4812 43.7256Z" fill="white"/>
</g>
<defs>
<clipPath id="clip0_199_1488">
<rect width="61" height="61" fill="white"/>
</clipPath>
</defs>
</svg>
